Patient4_TMGait_0pt6_02_left_22_EMG.mot
version=1
nRows=26
nColumns=33
inDegrees=no
endheader
time	1LAddLong	2LGlutMax	3LGlutMed	4LIliopsoas	5LSemiMemb	6LBicFemLong	7LRecFem	8LVastMed	9LVastLat	10LGasMed	11LTibAnt	12lTibPost	13LPeroneusLong	14LSol	15LExtDigLong	16LFlexDigLong	17RAddLong	18RGlutMax	19RGlutMed	20RIliopsoas	21RSemiMemb	22RBicFemLong	23RRecFem	24RVastMed	25RVastLat	26RGasMed	27RTibAnt	28RTibPost	29RPeroneusLong	30RSol	31RExtDigLong	32RFlexDigLong
28.21	0.006866	-0.20554	0.051575	0.022583	-0.00061	-0.0383	-0.11246	0.006561	0.09613	-0.03067	-0.01358	0.017853	0.12772	-0.014801	0.001831	0.003357	0.007629	-0.11078	0.93124	-0.1799	0.043488	0.22415	0.080109	-0.065613	-0.004883	-0.054016	0.10254	-0.009308	-1.0948	0.066376	0.001373	-0.009308
28.211	0.003204	-0.24475	0.014801	0.016632	0.008698	-0.040894	-0.10834	0.004883	0.095978	-0.036621	0.065918	-0.005341	0.15915	-0.012665	-0.31067	0.007324	0.005646	-0.049133	0.78781	-0.14969	0.10452	0.32516	0.079193	-0.024872	0.025024	-0.041351	0.20416	-0.009918	-0.61722	0.047913	0.000763	-0.013733
28.212	0.003662	-0.28153	-0.064087	0.005341	0.004425	-0.016632	-0.10895	0.006409	0.092926	-0.024567	0.034332	0.001678	0.1622	-0.058136	-0.21088	0.004272	0.006409	-0.13321	-0.044708	0.083923	0.061798	0.4805	0.050507	-0.019073	0.043335	0.017395	0.17364	-0.004578	-0.10376	0.060577	0.004425	-0.015869
28.213	0.007324	-0.26733	-0.045776	-0.002594	0.011902	-0.032959	-0.086365	0.006561	0.095825	-0.011749	-0.002441	0.002747	0.15839	-0.073395	-0.34821	0.007477	-0.010834	-0.16129	-0.45944	0.24826	-0.001526	0.39841	-0.006256	-0.088043	0.11765	0.040131	-0.014648	-0.00412	2.2127	0.11276	0.009155	-0.012817
28.214	0.009155	-0.27649	0.005035	0.012512	0.000305	-0.0354	-0.094147	0.007477	0.094604	-0.000305	-0.035858	-0.00061	0.14618	-0.089874	-0.34897	0.011749	-0.016785	-0.1622	-0.50003	0.19073	-0.025177	0.2417	-0.085144	0.015259	0.15625	0.023956	-0.087891	-0.008392	1.2709	0.090942	0.000916	-0.007782
28.215	0.001984	-0.31281	-0.007019	-0.000916	-0.055847	-0.047913	-0.096741	0.006256	0.076447	-0.006409	-0.027924	0.005798	0.097046	-0.048065	-0.13138	0.011597	0.005646	-0.1181	-0.44907	0.17578	-0.065308	0.1265	-0.086975	0.095367	0.21011	0.018005	-0.069885	-0.008392	-1.2932	0.035248	-0.001831	-0.010529
28.216	0.011139	-0.31921	-0.026093	-0.007324	-0.053864	-0.047913	-0.083923	0.005951	0.07843	-0.007019	0.030518	0.013733	0.026855	-0.050049	0.028381	0.007629	-0.001221	-0.16159	0.080719	0.020447	-0.020142	-0.001373	-0.045471	0.25207	0.31326	0.014191	0.057068	-0.009766	-0.61203	0.02594	-0.001984	0.000153
28.217	0.026855	-0.33722	-0.019379	0.011292	-0.026855	-0.018921	-0.071869	0.004578	0.075226	-0.014954	0.11856	0.011749	0.026398	-0.063477	0.067749	0.015869	-0.011749	-0.23209	-0.10117	-0.080414	0.03006	0.035095	-0.059814	0.14954	0.31158	0.00412	-0.037384	-0.008087	0.14481	0.088806	-0.004883	-0.001678
28.218	0.035553	-0.38605	-0.03479	0.005646	0.030518	-0.03952	-0.074768	0.007935	0.080414	-0.021362	0.21561	0.00473	0.039673	-0.040131	0.091705	0.016174	-0.001373	-0.23041	-0.27908	-0.066376	-0.03891	0.047455	0.011292	0.056915	0.21759	0.002594	-0.11856	-0.003662	0.38483	0.003204	-0.000458	-0.001068
28.219	0.033875	-0.34439	-0.064697	0.024567	0.052948	-0.020294	-0.078125	0.005798	0.075073	-0.017395	0.24521	0.007477	0.076447	-0.037842	0.15564	0.012207	0.009918	-0.13672	-0.031433	-0.056	0.040436	0.12619	-0.058136	0.10025	0.14282	0.011444	0.010681	-0.007019	-0.16266	-0.004425	0	0.004883
28.22	-0.00412	-0.34485	-0.086975	0.007019	0.047607	-0.007172	-0.081329	0.008087	0.070953	-0.03006	-0.037231	0.006714	0.1561	-0.025024	0.10437	0.019073	0.002136	-0.084076	-0.036011	-0.031433	0.00946	0.098419	0.04776	0.21713	0.19867	0.000763	0.08667	-0.014496	-0.242	-0.007019	-0.000763	0.001526
28.221	0.00885	-0.33585	-0.11093	-0.010834	0.018921	-0.009918	-0.083771	0.010834	0.064697	-0.036621	-0.11749	0.007324	0.19882	-0.013885	0.10956	0.021515	-0.006561	-0.034943	-0.32349	-0.006256	-0.042114	0.32349	0.077057	0.2095	0.18875	0.000916	0.012665	-0.006561	-0.64148	-0.10513	-0.000916	0.004272
28.222	0.008545	-0.35492	-0.11368	0.001068	0.00824	-0.019836	-0.062714	0.009766	0.054779	-0.02594	-0.1799	0.01358	0.07782	-0.023346	0.094147	0.016022	0.002289	-0.10712	-0.2475	0.012512	-0.16449	0.24414	0.039368	0.14435	0.17883	-0.001678	-0.10559	-0.005188	0.4277	-0.20874	0.000153	0.001221
28.223	0.008545	-0.34134	-0.1265	0.004425	-0.043182	-0.019226	-0.063324	0.007019	0.058899	-0.012207	-0.081635	0.005341	-0.098877	-0.074463	0.028534	0.010223	-0.022278	-0.10437	-0.039825	-0.03418	-0.11108	0.14771	-0.036469	0.11078	0.22308	-0.002594	0.049133	-0.010376	-0.063477	-0.17242	-0.001373	-0.003662
28.224	-0.000153	-0.3302	-0.10284	0.013733	-0.10544	-0.052795	-0.065308	0.010681	0.060272	-0.018463	-0.059814	0.007477	-0.022125	-0.1503	0.006866	0.023041	-0.018463	-0.062103	-0.11002	0.010223	0.010376	0.18463	0.00824	0.027924	0.20416	-0.033417	0.11963	-0.002747	0.18036	-0.21255	-0.001221	-0.00946
28.225	0.00946	-0.33081	-0.074158	0.005646	-0.040741	-0.059662	-0.068054	0.009155	0.052948	-0.036316	-0.030518	0.010986	-0.009308	-0.18219	0.002289	0.010071	-0.01236	-0.035248	-0.82413	0.10117	0.11185	0.2533	0.023346	-0.032806	0.1831	-0.056	0.14465	-0.00946	-0.12085	-0.16678	-0.003052	-0.016022
28.226	0.014038	-0.34988	-0.067291	0.015106	0.039825	-0.034332	-0.066376	0.007477	0.049591	-0.036316	-0.027313	0.013123	-0.040131	-0.18372	0.018768	0.015106	-0.023956	-0.035706	-0.41992	0.082397	0.21042	0.2977	-0.004425	-0.001984	0.13184	0.024872	0.168	0.000305	-1.4391	-0.13382	-0.001221	-0.014191
28.227	0.019073	-0.3656	-0.032654	0.027618	0.031586	-0.026703	-0.064697	0.006256	0.050354	-0.049744	-0.010986	0.00885	0.004883	-0.10391	0.037689	0.016022	-0.014648	-0.004883	0.85236	0.002594	0.06012	0.3389	0.052795	-0.070648	0.062256	0.049133	0.26199	-0.003662	-0.95551	-0.016174	0.001831	-0.014496
28.228	0.002899	-0.41916	-0.081177	0.001678	0.008698	-0.015869	-0.054321	0.011749	0.055695	-0.049133	-0.006561	-0.000916	0.015869	-0.055695	0.025024	0.017242	-0.011597	-0.041199	0.83344	-0.004425	-0.083008	0.2684	0.13611	-0.082092	-0.030518	-0.027466	0.22385	-0.010071	0.41672	-0.099335	0.000916	-0.016022
28.229	0.001373	-0.40253	0.002289	-0.009766	-0.035248	-0.031128	-0.065765	0.009003	0.048981	-0.078278	-0.011444	0.001221	-0.010529	-0.087738	0.006256	0.015411	-0.015564	-0.12756	0.016632	-0.072479	0.072479	0.03067	0.21088	-0.10513	-0.056915	0.021973	0.084381	-0.013275	0.046234	0.053558	0.002747	-0.013275
28.23	-0.004578	-0.38116	-0.001984	0.011444	-0.060425	-0.059357	-0.066376	0.010681	0.048676	-0.00351	-0.001373	0.002136	-0.021667	-0.084076	0.006714	0.007935	0.000305	-0.11414	0.1387	-0.19531	0.14099	0.021362	0.038605	-0.11307	-0.1059	0.084991	-0.10361	-0.016327	0.34714	-0.13046	0	-0.00061
28.231	-0.007172	-0.37064	0.016022	0.018768	-0.057068	-0.03006	-0.077057	0.00824	0.046082	-0.044556	0.018768	0.006256	-0.035706	-0.034943	0.003357	0.027924	0.001373	-0.088043	0.018158	-0.23712	0.086365	0.080719	-0.14008	-0.068207	-0.09613	0.068054	-0.099487	-0.005951	1.4439	-0.42191	0.005188	-0.004883
28.232	-0.000458	-0.38071	0.06485	-0.013428	-0.054779	-0.018616	-0.075073	0.018311	0.029907	-0.007935	0.11353	0.007935	-0.046082	-0.043182	-0.005951	0.018311	-0.010071	-0.14328	-0.65842	-0.17777	-0.009308	0.13809	-0.039978	0.073853	-0.001526	-0.039368	-0.049286	0.020294	-0.65292	-0.47348	0.001373	-0.004883
28.233	-0.005035	-0.41702	0.070648	0.024109	0.002747	-0.064697	-0.063629	0.010071	0.039215	-0.035858	0.1535	0.00351	-0.015717	-0.045319	-0.007172	0.012512	0.003052	-0.1384	0.14099	-0.18295	-0.095673	0.10101	0.085602	0.052948	0.051422	-0.103	0.011139	-0.12604	-0.068665	0.095367	0.002136	-0.014954
28.234	0.019684	-0.38849	0.099182	0.00473	0.099792	-0.082397	-0.068817	0.006256	0.04837	-0.065613	0.13901	0.003662	0.005798	-0.039978	-0.028687	0.025482	-0.01709	-0.076447	0.5983	0.008545	-0.10407	0.10056	-0.089722	-0.048065	0.077057	-0.098724	0.042877	-0.026703	-0.096283	0.84076	0.001373	-0.016785
28.235	0.028687	-0.36743	0.13779	0.009155	0.050049	-0.050201	-0.07782	0.010529	0.050201	-0.075684	-0.19974	0.002289	-0.005646	-0.028839	0.035248	0.022125	-0.010529	0.033875	0.43366	0.11459	0.063171	0.045624	-0.168	-0.037231	0.10269	-0.067596	0.046997	0.077972	0.67184	0.67047	-0.000305	-0.010986
